<?xml version="1.0" encoding="UTF-8"?>
<svg xmlns="http://www.w3.org/2000/svg" xmlns:xlink="http://www.w3.org/1999/xlink" width="100px" height="100px" viewBox="0 0 100 55" version="1.1">
<defs>
<filter id="alpha" filterUnits="objectBoundingBox" x="0%" y="0%" width="100%" height="100%">
  <feColorMatrix type="matrix" in="SourceGraphic" values="0 0 0 0 1 0 0 0 0 1 0 0 0 0 1 0 0 0 1 0"/>
</filter>
<mask id="mask0">
  <g filter="url(#alpha)">
<rect x="0" y="0" width="100" height="55" style="fill:rgb(0%,0%,0%);fill-opacity:0.65098;stroke:none;"/>
  </g>
</mask>
<clipPath id="clip1">
  <rect x="0" y="0" width="100" height="55"/>
</clipPath>
<g id="surface5" clip-path="url(#clip1)">
<path style=" stroke:none;fill-rule:nonzero;fill:rgb(40%,17.647059%,56.862745%);fill-opacity:1;" d="M 41.480469 22.960938 C 40.730469 22.554688 39.785156 22.355469 38.796875 22.355469 C 37.449219 22.355469 36.398438 22.851562 35.640625 23.832031 C 34.882812 24.820312 34.5 26.15625 34.5 27.851562 L 34.5 37.421875 L 28.3125 37.421875 L 28.3125 17.382812 L 34.5 17.382812 L 34.5 21.105469 L 34.582031 21.105469 C 35.5625 18.386719 37.324219 17.03125 39.871094 17.03125 C 40.53125 17.03125 41.113281 17.0625 41.480469 17.214844 Z M 41.480469 22.960938 "/>
</g>
<mask id="mask1">
  <g filter="url(#alpha)">
<rect x="0" y="0" width="100" height="55" style="fill:rgb(0%,0%,0%);fill-opacity:0.65098;stroke:none;"/>
  </g>
</mask>
<clipPath id="clip2">
  <rect x="0" y="0" width="100" height="55"/>
</clipPath>
<g id="surface8" clip-path="url(#clip2)">
<path style=" stroke:none;fill-rule:nonzero;fill:rgb(92.54902%,0%,54.901961%);fill-opacity:1;" d="M 34.546875 37.421875 L 28.371094 37.421875 L 28.371094 34.371094 L 28.277344 34.371094 C 26.746094 36.726562 24.707031 37.910156 22.144531 37.910156 C 17.488281 37.910156 15.167969 35.097656 15.167969 29.480469 L 15.167969 17.382812 L 21.339844 17.382812 L 21.339844 28.933594 C 21.339844 31.757812 22.464844 33.175781 24.714844 33.175781 C 25.824219 33.175781 26.707031 32.785156 27.375 32.011719 C 28.046875 31.238281 28.375 30.179688 28.375 28.851562 L 28.375 17.382812 L 34.546875 17.382812 Z M 34.546875 37.421875 "/>
</g>
<mask id="mask2">
  <g filter="url(#alpha)">
<rect x="0" y="0" width="100" height="55" style="fill:rgb(0%,0%,0%);fill-opacity:0.760784;stroke:none;"/>
  </g>
</mask>
<clipPath id="clip3">
  <rect x="0" y="0" width="100" height="55"/>
</clipPath>
<g id="surface11" clip-path="url(#clip3)">
<path style=" stroke:none;fill-rule:nonzero;fill:rgb(54.901961%,17.647059%,56.862745%);fill-opacity:1;" d="M 62.347656 30.480469 C 62.347656 31.324219 62.546875 31.972656 62.953125 32.402344 C 63.359375 32.835938 63.902344 33.054688 64.574219 33.054688 C 64.914062 33.054688 65.253906 33.023438 65.585938 32.957031 C 65.925781 32.894531 66.265625 32.828125 66.605469 32.761719 L 66.605469 37.097656 C 65.859375 37.289062 65.082031 37.449219 64.257812 37.570312 C 63.429688 37.695312 62.5625 37.753906 61.671875 37.753906 C 60.851562 37.753906 60.105469 37.621094 59.429688 37.347656 C 58.777344 37.085938 58.1875 36.679688 57.710938 36.164062 C 57.222656 35.625 56.847656 34.992188 56.613281 34.304688 C 56.339844 33.515625 56.207031 32.679688 56.21875 31.84375 L 56.21875 7.695312 L 62.347656 7.695312 Z M 62.347656 30.480469 "/>
</g>
</defs>
<g id="surface1">
<path style=" stroke:none;fill-rule:nonzero;fill:rgb(41.960784%,19.607843%,57.647059%);fill-opacity:1;" d="M 6.5625 26.671875 L 6.5625 28.277344 C 6.5625 29.660156 6.921875 30.789062 7.65625 31.664062 C 8.386719 32.535156 9.347656 32.972656 10.539062 32.972656 C 11.945312 32.972656 13.042969 32.429688 13.816406 31.339844 C 14.59375 30.253906 14.988281 28.710938 14.988281 26.714844 C 14.988281 23.1875 13.609375 21.429688 10.867188 21.429688 C 9.601562 21.429688 8.566406 21.910156 7.761719 22.863281 C 6.960938 23.828125 6.5625 25.097656 6.5625 26.671875 M 6.734375 34.886719 L 6.652344 34.886719 L 6.652344 45.652344 L 0.46875 45.652344 L 0.46875 17.183594 L 6.65625 17.183594 L 6.65625 20.195312 L 6.734375 20.195312 C 8.265625 17.863281 10.414062 16.691406 13.183594 16.691406 C 15.785156 16.691406 17.792969 17.582031 19.207031 19.363281 C 20.625 21.140625 21.335938 23.566406 21.335938 26.632812 C 21.335938 29.972656 20.507812 32.652344 18.855469 34.675781 C 17.203125 36.699219 15.003906 37.707031 12.261719 37.707031 C 9.84375 37.707031 8.003906 36.769531 6.734375 34.886719 Z M 6.734375 34.886719 "/>
<use xlink:href="#surface5" mask="url(#mask0)"/>
<path style=" stroke:none;fill-rule:nonzero;fill:rgb(91.372549%,8.235294%,55.686275%);fill-opacity:1;" d="M 47.578125 26.65625 L 47.578125 28.257812 C 47.578125 29.640625 47.9375 30.769531 48.671875 31.644531 C 49.402344 32.519531 50.363281 32.957031 51.554688 32.957031 C 52.957031 32.957031 54.058594 32.414062 54.832031 31.324219 C 55.609375 30.234375 56.003906 28.691406 56.003906 26.695312 C 56.003906 23.167969 54.625 21.414062 51.882812 21.414062 C 50.621094 21.414062 49.582031 21.894531 48.78125 22.847656 C 47.976562 23.808594 47.578125 25.078125 47.578125 26.65625 M 47.75 34.871094 L 47.671875 34.871094 L 47.671875 45.636719 L 41.484375 45.636719 L 41.484375 17.164062 L 47.671875 17.164062 L 47.671875 20.175781 L 47.75 20.175781 C 49.28125 17.84375 51.429688 16.675781 54.199219 16.675781 C 56.800781 16.675781 58.808594 17.5625 60.226562 19.347656 C 61.644531 21.121094 62.355469 23.546875 62.355469 26.613281 C 62.355469 29.953125 61.527344 32.632812 59.871094 34.652344 C 58.222656 36.679688 56.019531 37.6875 53.277344 37.6875 C 50.863281 37.6875 49.023438 36.753906 47.75 34.871094 Z M 47.75 34.871094 "/>
<path style=" stroke:none;fill-rule:nonzero;fill:rgb(0%,0%,0%);fill-opacity:1;" d="M 99.429688 16.851562 L 99.429688 17.566406 L 96.84375 17.566406 C 96.34375 17.566406 95.984375 17.644531 95.761719 17.800781 C 95.539062 17.953125 95.429688 18.210938 95.429688 18.574219 C 95.429688 18.882812 95.566406 19.144531 95.851562 19.359375 C 96.132812 19.574219 96.46875 19.679688 96.859375 19.679688 L 99.425781 19.679688 L 99.425781 20.398438 L 96.753906 20.398438 C 95.871094 20.398438 95.429688 20.742188 95.429688 21.421875 C 95.429688 21.738281 95.5625 22 95.824219 22.203125 C 96.089844 22.410156 96.433594 22.511719 96.859375 22.511719 L 99.425781 22.511719 L 99.425781 23.230469 L 94.925781 23.230469 L 94.925781 22.511719 L 95.640625 22.511719 L 95.640625 22.492188 C 95.089844 22.175781 94.820312 21.710938 94.820312 21.097656 C 94.808594 20.511719 95.191406 19.988281 95.753906 19.824219 C 95.132812 19.492188 94.824219 18.996094 94.824219 18.332031 C 94.824219 17.34375 95.433594 16.847656 96.65625 16.847656 L 99.429688 16.847656 Z M 95.429688 26.070312 C 95.429688 26.53125 95.585938 26.894531 95.902344 27.167969 C 96.21875 27.4375 96.648438 27.570312 97.203125 27.570312 C 97.738281 27.570312 98.15625 27.433594 98.464844 27.164062 C 98.773438 26.890625 98.925781 26.527344 98.925781 26.070312 C 98.925781 25.605469 98.773438 25.246094 98.472656 24.996094 C 98.171875 24.746094 97.746094 24.621094 97.1875 24.621094 C 96.625 24.621094 96.191406 24.746094 95.886719 24.996094 C 95.582031 25.246094 95.429688 25.601562 95.429688 26.070312 Z M 99.53125 26.121094 C 99.53125 26.785156 99.324219 27.3125 98.902344 27.710938 C 98.484375 28.105469 97.925781 28.308594 97.230469 28.308594 C 96.472656 28.308594 95.886719 28.101562 95.460938 27.6875 C 95.035156 27.273438 94.824219 26.71875 94.824219 26.015625 C 94.824219 25.347656 95.03125 24.824219 95.441406 24.445312 C 95.855469 24.070312 96.429688 23.882812 97.160156 23.882812 C 97.878906 23.882812 98.453125 24.085938 98.882812 24.488281 C 99.316406 24.894531 99.53125 25.441406 99.53125 26.121094 Z M 99.222656 28.589844 C 99.429688 28.933594 99.53125 29.347656 99.53125 29.820312 C 99.53125 30.460938 99.324219 30.980469 98.910156 31.371094 C 98.492188 31.765625 97.949219 31.960938 97.285156 31.960938 C 96.542969 31.960938 95.945312 31.75 95.496094 31.324219 C 95.046875 30.902344 94.824219 30.335938 94.824219 29.628906 C 94.824219 29.230469 94.898438 28.886719 95.042969 28.582031 L 95.78125 28.582031 C 95.554688 28.894531 95.429688 29.269531 95.429688 29.65625 C 95.429688 30.113281 95.59375 30.492188 95.925781 30.785156 C 96.253906 31.078125 96.6875 31.230469 97.222656 31.230469 C 97.75 31.230469 98.164062 31.089844 98.46875 30.8125 C 98.773438 30.535156 98.925781 30.164062 98.925781 29.699219 C 98.925781 29.308594 98.792969 28.941406 98.535156 28.597656 L 99.222656 28.597656 Z M 97.195312 33.71875 C 97.820312 33.699219 98.40625 34.023438 98.722656 34.5625 C 99.042969 35.101562 99.042969 35.769531 98.722656 36.308594 C 98.40625 36.847656 97.820312 37.171875 97.195312 37.152344 C 96.261719 37.128906 95.519531 36.367188 95.519531 35.4375 C 95.519531 34.503906 96.261719 33.742188 97.195312 33.71875 "/>
<use xlink:href="#surface8" mask="url(#mask1)"/>
<use xlink:href="#surface11" mask="url(#mask2)"/>
<path style=" stroke:none;fill-rule:nonzero;fill:rgb(40.392157%,14.901961%,46.27451%);fill-opacity:1;" d="M 70.242188 22.785156 C 70.242188 23.628906 70.441406 24.277344 70.847656 24.707031 C 71.253906 25.140625 71.792969 25.359375 72.464844 25.359375 C 72.804688 25.359375 73.144531 25.328125 73.476562 25.261719 C 73.820312 25.199219 74.15625 25.132812 74.496094 25.066406 L 74.496094 29.402344 C 73.753906 29.59375 72.972656 29.753906 72.144531 29.875 C 71.289062 30 70.425781 30.0625 69.5625 30.058594 C 68.742188 30.058594 67.996094 29.925781 67.320312 29.652344 C 66.667969 29.390625 66.082031 28.984375 65.601562 28.46875 C 65.113281 27.929688 64.738281 27.296875 64.503906 26.613281 C 64.234375 25.820312 64.101562 24.988281 64.109375 24.148438 L 64.109375 0 L 70.242188 0 Z M 70.242188 22.785156 "/>
<path style=" stroke:none;fill-rule:nonzero;fill:rgb(81.176471%,7.058824%,54.901961%);fill-opacity:1;" d="M 86.558594 25.238281 C 86.558594 22.382812 85.398438 20.949219 83.078125 20.949219 C 82.09375 20.949219 81.230469 21.355469 80.515625 22.171875 C 79.789062 22.992188 79.355469 24.015625 79.195312 25.234375 Z M 92.273438 29.023438 L 79.234375 29.023438 C 79.4375 31.917969 81.273438 33.367188 84.71875 33.367188 C 86.917969 33.367188 88.851562 32.847656 90.515625 31.808594 L 90.515625 36.257812 C 88.671875 37.238281 86.269531 37.734375 83.3125 37.734375 C 80.085938 37.734375 77.582031 36.84375 75.796875 35.050781 C 74.019531 33.269531 73.125 30.773438 73.125 27.578125 C 73.125 24.265625 74.085938 21.636719 76.019531 19.699219 C 77.941406 17.765625 80.308594 16.800781 83.117188 16.800781 C 86.03125 16.800781 88.289062 17.664062 89.886719 19.386719 C 91.476562 21.117188 92.277344 23.46875 92.277344 26.429688 Z M 92.273438 29.023438 "/>
<path style=" stroke:none;fill-rule:nonzero;fill:rgb(40.392157%,14.901961%,46.666667%);fill-opacity:1;" d="M 1.214844 46.878906 L 1.214844 52.519531 L 0.484375 52.519531 L 0.484375 46.878906 Z M 2.546875 49.566406 C 2.546875 49.148438 2.539062 48.804688 2.515625 48.46875 L 3.167969 48.46875 L 3.210938 49.136719 L 3.226562 49.136719 C 3.429688 48.753906 3.898438 48.375 4.570312 48.375 C 5.128906 48.375 6 48.710938 6 50.101562 L 6 52.519531 L 5.261719 52.519531 L 5.261719 50.183594 C 5.261719 49.53125 5.019531 48.984375 4.324219 48.984375 C 3.863281 48.992188 3.464844 49.300781 3.335938 49.742188 C 3.300781 49.851562 3.28125 49.96875 3.285156 50.082031 L 3.285156 52.519531 L 2.546875 52.519531 Z M 10.703125 46.574219 L 10.703125 51.472656 C 10.703125 51.832031 10.714844 52.242188 10.738281 52.519531 L 10.078125 52.519531 L 10.042969 51.816406 L 10.027344 51.816406 C 9.800781 52.269531 9.304688 52.613281 8.644531 52.613281 C 7.660156 52.613281 6.90625 51.785156 6.90625 50.550781 C 6.898438 49.207031 7.738281 48.375 8.726562 48.375 C 9.347656 48.375 9.765625 48.667969 9.949219 48.996094 L 9.96875 48.996094 L 9.96875 46.574219 Z M 9.96875 50.117188 C 9.96875 50.023438 9.960938 49.898438 9.933594 49.808594 C 9.824219 49.308594 9.382812 48.953125 8.871094 48.953125 C 8.105469 48.953125 7.65625 49.625 7.65625 50.519531 C 7.65625 51.339844 8.058594 52.015625 8.851562 52.015625 C 9.375 52.015625 9.828125 51.648438 9.933594 51.140625 C 9.960938 51.039062 9.96875 50.9375 9.96875 50.820312 Z M 12.75 47.332031 C 12.761719 47.582031 12.574219 47.78125 12.28125 47.78125 C 12.164062 47.78125 12.046875 47.734375 11.964844 47.652344 C 11.878906 47.566406 11.835938 47.449219 11.839844 47.332031 C 11.839844 47.070312 12.03125 46.871094 12.300781 46.871094 C 12.574219 46.871094 12.75 47.070312 12.75 47.332031 Z M 11.929688 52.519531 L 11.929688 48.46875 L 12.667969 48.46875 L 12.667969 52.519531 Z M 16.140625 52.519531 L 16.082031 52.007812 L 16.058594 52.007812 C 15.765625 52.398438 15.304688 52.621094 14.816406 52.613281 C 13.996094 52.613281 13.574219 52.035156 13.574219 51.449219 C 13.574219 50.46875 14.445312 49.933594 16.015625 49.941406 L 16.015625 49.859375 C 16.015625 49.523438 15.921875 48.921875 15.09375 48.921875 C 14.714844 48.921875 14.320312 49.039062 14.035156 49.222656 L 13.867188 48.738281 C 14.203125 48.519531 14.691406 48.378906 15.199219 48.378906 C 16.441406 48.378906 16.742188 49.222656 16.742188 50.035156 L 16.742188 51.550781 C 16.742188 51.902344 16.757812 52.246094 16.808594 52.523438 L 16.140625 52.523438 Z M 16.03125 50.453125 C 15.226562 50.433594 14.3125 50.578125 14.3125 51.363281 C 14.3125 51.84375 14.632812 52.070312 15.007812 52.070312 C 15.449219 52.082031 15.84375 51.804688 15.988281 51.390625 C 16.015625 51.316406 16.03125 51.238281 16.03125 51.15625 Z M 18.589844 46.785156 C 18.394531 47.488281 18.035156 48.382812 17.800781 48.769531 L 17.332031 48.828125 C 17.550781 48.1875 17.71875 47.527344 17.828125 46.859375 Z M 18.691406 51.765625 C 18.90625 51.910156 19.292969 52.058594 19.664062 52.058594 C 20.199219 52.058594 20.449219 51.789062 20.449219 51.457031 C 20.449219 51.105469 20.242188 50.910156 19.695312 50.710938 C 18.96875 50.453125 18.621094 50.050781 18.621094 49.5625 C 18.621094 48.910156 19.152344 48.375 20.023438 48.375 C 20.433594 48.375 20.792969 48.492188 21.019531 48.628906 L 20.835938 49.164062 C 20.585938 49.007812 20.300781 48.925781 20.007812 48.929688 C 19.570312 48.929688 19.328125 49.179688 19.328125 49.480469 C 19.328125 49.816406 19.570312 49.96875 20.097656 50.167969 C 20.800781 50.433594 21.160156 50.785156 21.160156 51.390625 C 21.160156 52.101562 20.609375 52.605469 19.644531 52.605469 C 19.199219 52.605469 18.789062 52.496094 18.503906 52.328125 Z M 24.058594 52.519531 L 24.273438 50.878906 L 23.585938 50.878906 L 23.585938 50.382812 L 24.351562 50.382812 L 24.511719 49.171875 L 23.789062 49.171875 L 23.789062 48.675781 L 24.585938 48.675781 L 24.800781 47.078125 L 25.289062 47.078125 L 25.078125 48.675781 L 25.949219 48.675781 L 26.167969 47.078125 L 26.660156 47.078125 L 26.453125 48.675781 L 27.140625 48.675781 L 27.140625 49.171875 L 26.375 49.171875 L 26.226562 50.382812 L 26.945312 50.382812 L 26.945312 50.878906 L 26.148438 50.878906 L 25.929688 52.519531 L 25.429688 52.519531 L 25.648438 50.878906 L 24.777344 50.878906 L 24.558594 52.519531 Z M 25.726562 50.386719 L 25.882812 49.171875 L 25.011719 49.171875 L 24.855469 50.386719 Z M 29.421875 47.765625 L 29.40625 47.765625 L 28.460938 48.277344 L 28.316406 47.714844 L 29.507812 47.078125 L 30.136719 47.078125 L 30.136719 52.519531 L 29.421875 52.519531 Z M 34.160156 46.953125 C 34.601562 46.871094 35.046875 46.832031 35.496094 46.835938 C 36.222656 46.835938 36.691406 46.960938 37.046875 47.246094 C 37.339844 47.464844 37.515625 47.796875 37.515625 48.242188 C 37.515625 48.785156 37.152344 49.261719 36.558594 49.480469 L 36.558594 49.496094 C 37.097656 49.628906 37.722656 50.074219 37.722656 50.910156 C 37.722656 51.398438 37.53125 51.765625 37.246094 52.042969 C 36.851562 52.402344 36.214844 52.570312 35.292969 52.570312 C 34.914062 52.574219 34.535156 52.550781 34.160156 52.5 Z M 34.890625 49.261719 L 35.554688 49.261719 C 36.324219 49.261719 36.777344 48.863281 36.777344 48.316406 C 36.777344 47.65625 36.273438 47.394531 35.535156 47.394531 C 35.199219 47.394531 35.007812 47.421875 34.890625 47.445312 Z M 34.890625 51.964844 C 35.03125 51.992188 35.242188 52 35.503906 52 C 36.257812 52 36.953125 51.722656 36.953125 50.902344 C 36.953125 50.132812 36.289062 49.816406 35.496094 49.816406 L 34.890625 49.816406 Z M 39.125 50.625 C 39.140625 51.621094 39.78125 52.035156 40.515625 52.035156 C 41.046875 52.035156 41.363281 51.941406 41.640625 51.824219 L 41.765625 52.351562 C 41.503906 52.46875 41.0625 52.601562 40.417969 52.601562 C 39.167969 52.601562 38.421875 51.78125 38.421875 50.558594 C 38.421875 49.335938 39.144531 48.375 40.324219 48.375 C 41.648438 48.375 42.003906 49.539062 42.003906 50.28125 C 42.003906 50.433594 41.984375 50.550781 41.976562 50.625 Z M 41.289062 50.101562 C 41.296875 49.632812 41.09375 48.902344 40.265625 48.902344 C 39.519531 48.902344 39.191406 49.589844 39.132812 50.101562 Z M 45.164062 52.519531 L 45.105469 52.007812 L 45.078125 52.007812 C 44.789062 52.398438 44.324219 52.621094 43.839844 52.613281 C 43.015625 52.613281 42.597656 52.035156 42.597656 51.449219 C 42.597656 50.46875 43.46875 49.933594 45.039062 49.941406 L 45.039062 49.859375 C 45.039062 49.523438 44.945312 48.921875 44.117188 48.921875 C 43.738281 48.921875 43.34375 49.039062 43.058594 49.222656 L 42.890625 48.738281 C 43.226562 48.519531 43.714844 48.378906 44.226562 48.378906 C 45.464844 48.378906 45.765625 49.222656 45.765625 50.035156 L 45.765625 51.550781 C 45.765625 51.902344 45.78125 52.246094 45.832031 52.523438 L 45.164062 52.523438 Z M 45.054688 50.453125 C 44.25 50.433594 43.335938 50.578125 43.335938 51.363281 C 43.335938 51.84375 43.65625 52.070312 44.03125 52.070312 C 44.472656 52.082031 44.867188 51.804688 45.011719 51.390625 C 45.039062 51.316406 45.054688 51.238281 45.054688 51.15625 Z M 50.355469 51.414062 C 50.355469 51.832031 50.363281 52.199219 50.386719 52.519531 L 49.730469 52.519531 L 49.691406 51.859375 L 49.675781 51.859375 C 49.480469 52.183594 49.054688 52.613281 48.332031 52.613281 C 47.695312 52.613281 46.933594 52.261719 46.933594 50.839844 L 46.933594 48.46875 L 47.671875 48.46875 L 47.671875 50.710938 C 47.671875 51.480469 47.90625 52.003906 48.574219 52.003906 C 49.070312 52.003906 49.414062 51.660156 49.546875 51.332031 C 49.59375 51.210938 49.613281 51.085938 49.613281 50.957031 L 49.613281 48.46875 L 50.351562 48.46875 L 50.351562 51.414062 Z M 52.46875 47.304688 L 52.46875 48.46875 L 53.523438 48.46875 L 53.523438 49.027344 L 52.46875 49.027344 L 52.46875 51.214844 C 52.46875 51.714844 52.609375 52 53.019531 52 C 53.214844 52 53.359375 51.972656 53.449219 51.949219 L 53.480469 52.503906 C 53.339844 52.5625 53.113281 52.605469 52.828125 52.605469 C 52.484375 52.605469 52.207031 52.496094 52.03125 52.292969 C 51.820312 52.078125 51.746094 51.714844 51.746094 51.238281 L 51.746094 49.027344 L 51.117188 49.027344 L 51.117188 48.46875 L 51.746094 48.46875 L 51.746094 47.496094 Z M 54.699219 48.46875 L 55.585938 50.863281 C 55.679688 51.128906 55.777344 51.449219 55.847656 51.691406 L 55.863281 51.691406 C 55.941406 51.449219 56.023438 51.136719 56.125 50.84375 L 56.929688 48.46875 L 57.707031 48.46875 L 56.601562 51.355469 C 56.074219 52.746094 55.714844 53.457031 55.210938 53.890625 C 54.953125 54.128906 54.640625 54.292969 54.304688 54.371094 L 54.117188 53.75 C 54.304688 53.691406 54.546875 53.574219 54.765625 53.390625 C 54.964844 53.230469 55.214844 52.945312 55.382812 52.570312 C 55.417969 52.496094 55.445312 52.4375 55.445312 52.394531 C 55.445312 52.351562 55.425781 52.292969 55.394531 52.203125 L 53.890625 48.46875 Z M 60.179688 46.953125 C 60.695312 46.875 61.214844 46.835938 61.734375 46.835938 C 62.78125 46.835938 63.527344 47.078125 64.023438 47.539062 C 64.523438 48 64.816406 48.652344 64.816406 49.566406 C 64.816406 50.488281 64.535156 51.238281 64.003906 51.757812 C 63.476562 52.285156 62.605469 52.570312 61.507812 52.570312 C 60.988281 52.570312 60.550781 52.542969 60.179688 52.503906 Z M 60.910156 51.941406 C 61.09375 51.972656 61.363281 51.984375 61.648438 51.984375 C 63.207031 51.984375 64.054688 51.113281 64.054688 49.589844 C 64.0625 48.257812 63.308594 47.410156 61.765625 47.410156 C 61.386719 47.410156 61.101562 47.445312 60.910156 47.488281 Z M 66.1875 50.625 C 66.203125 51.621094 66.839844 52.035156 67.578125 52.035156 C 68.105469 52.035156 68.425781 51.941406 68.703125 51.824219 L 68.828125 52.351562 C 68.570312 52.46875 68.125 52.601562 67.480469 52.601562 C 66.230469 52.601562 65.484375 51.78125 65.484375 50.558594 C 65.484375 49.335938 66.207031 48.375 67.386719 48.375 C 68.710938 48.375 69.0625 49.539062 69.0625 50.28125 C 69.0625 50.433594 69.046875 50.550781 69.039062 50.625 Z M 68.351562 50.101562 C 68.359375 49.632812 68.15625 48.902344 67.328125 48.902344 C 66.582031 48.902344 66.253906 49.589844 66.195312 50.101562 Z M 69.875 51.765625 C 70.09375 51.910156 70.480469 52.058594 70.847656 52.058594 C 71.386719 52.058594 71.636719 51.789062 71.636719 51.457031 C 71.636719 51.105469 71.425781 50.910156 70.882812 50.710938 C 70.152344 50.453125 69.808594 50.050781 69.808594 49.5625 C 69.808594 48.910156 70.335938 48.375 71.207031 48.375 C 71.617188 48.375 71.980469 48.492188 72.207031 48.628906 L 72.019531 49.164062 C 71.769531 49.007812 71.484375 48.925781 71.191406 48.929688 C 70.753906 48.929688 70.511719 49.179688 70.511719 49.480469 C 70.511719 49.816406 70.753906 49.96875 71.28125 50.167969 C 71.988281 50.433594 72.347656 50.785156 72.347656 51.390625 C 72.347656 52.101562 71.792969 52.605469 70.832031 52.605469 C 70.386719 52.605469 69.976562 52.496094 69.691406 52.328125 Z M 74.1875 47.304688 L 74.1875 48.46875 L 75.242188 48.46875 L 75.242188 49.027344 L 74.1875 49.027344 L 74.1875 51.214844 C 74.1875 51.714844 74.328125 52 74.738281 52 C 74.933594 52 75.078125 51.972656 75.167969 51.949219 L 75.199219 52.503906 C 75.058594 52.5625 74.832031 52.605469 74.546875 52.605469 C 74.203125 52.605469 73.925781 52.496094 73.75 52.292969 C 73.539062 52.078125 73.464844 51.714844 73.464844 51.238281 L 73.464844 49.027344 L 72.835938 49.027344 L 72.835938 48.46875 L 73.464844 48.46875 L 73.464844 47.496094 Z M 76.894531 47.332031 C 76.902344 47.582031 76.71875 47.78125 76.425781 47.78125 C 76.304688 47.785156 76.191406 47.734375 76.105469 47.652344 C 76.023438 47.566406 75.976562 47.449219 75.980469 47.332031 C 75.980469 47.070312 76.171875 46.871094 76.441406 46.871094 C 76.71875 46.871094 76.894531 47.070312 76.894531 47.332031 Z M 76.074219 52.519531 L 76.074219 48.46875 L 76.808594 48.46875 L 76.808594 52.519531 Z M 78.035156 49.566406 C 78.035156 49.148438 78.027344 48.804688 78 48.46875 L 78.65625 48.46875 L 78.699219 49.136719 L 78.714844 49.136719 C 78.914062 48.753906 79.386719 48.375 80.054688 48.375 C 80.617188 48.375 81.488281 48.710938 81.488281 50.101562 L 81.488281 52.519531 L 80.753906 52.519531 L 80.753906 50.183594 C 80.753906 49.53125 80.507812 48.984375 79.8125 48.984375 C 79.355469 48.992188 78.953125 49.300781 78.824219 49.742188 C 78.789062 49.851562 78.773438 49.96875 78.773438 50.082031 L 78.773438 52.519531 L 78.035156 52.519531 Z M 84.933594 52.519531 L 84.875 52.007812 L 84.851562 52.007812 C 84.558594 52.398438 84.097656 52.621094 83.609375 52.613281 C 82.789062 52.613281 82.371094 52.035156 82.371094 51.449219 C 82.371094 50.46875 83.242188 49.933594 84.808594 49.941406 L 84.808594 49.859375 C 84.808594 49.523438 84.71875 48.921875 83.886719 48.921875 C 83.511719 48.921875 83.117188 49.039062 82.832031 49.222656 L 82.664062 48.738281 C 83 48.519531 83.484375 48.378906 83.996094 48.378906 C 85.238281 48.378906 85.539062 49.222656 85.539062 50.035156 L 85.539062 51.550781 C 85.539062 51.902344 85.554688 52.246094 85.605469 52.523438 L 84.933594 52.523438 Z M 84.824219 50.453125 C 84.019531 50.433594 83.109375 50.578125 83.109375 51.363281 C 83.109375 51.84375 83.425781 52.070312 83.804688 52.070312 C 84.242188 52.082031 84.640625 51.808594 84.785156 51.390625 C 84.808594 51.316406 84.824219 51.238281 84.824219 51.15625 Z M 87.585938 47.304688 L 87.585938 48.46875 L 88.640625 48.46875 L 88.640625 49.027344 L 87.585938 49.027344 L 87.585938 51.214844 C 87.585938 51.714844 87.726562 52 88.140625 52 C 88.332031 52 88.476562 51.972656 88.566406 51.949219 L 88.601562 52.503906 C 88.457031 52.5625 88.230469 52.605469 87.945312 52.605469 C 87.601562 52.605469 87.328125 52.496094 87.148438 52.292969 C 86.941406 52.078125 86.863281 51.714844 86.863281 51.238281 L 86.863281 49.027344 L 86.234375 49.027344 L 86.234375 48.46875 L 86.863281 48.46875 L 86.863281 47.496094 Z M 90.296875 47.332031 C 90.304688 47.582031 90.117188 47.78125 89.828125 47.78125 C 89.707031 47.785156 89.589844 47.734375 89.507812 47.652344 C 89.421875 47.566406 89.378906 47.449219 89.382812 47.332031 C 89.382812 47.070312 89.574219 46.871094 89.84375 46.871094 C 90.117188 46.871094 90.296875 47.070312 90.296875 47.332031 Z M 89.472656 52.519531 L 89.472656 48.46875 L 90.210938 48.46875 L 90.210938 52.519531 Z M 95.105469 50.460938 C 95.105469 51.960938 94.066406 52.613281 93.085938 52.613281 C 91.988281 52.613281 91.140625 51.808594 91.140625 50.527344 C 91.140625 49.171875 92.027344 48.378906 93.152344 48.378906 C 94.320312 48.375 95.105469 49.222656 95.105469 50.460938 Z M 91.886719 50.503906 C 91.886719 51.390625 92.398438 52.058594 93.121094 52.058594 C 93.828125 52.058594 94.355469 51.398438 94.355469 50.484375 C 94.355469 49.800781 94.011719 48.929688 93.140625 48.929688 C 92.265625 48.929688 91.886719 49.730469 91.886719 50.503906 Z M 96.039062 49.566406 C 96.039062 49.148438 96.03125 48.804688 96.007812 48.46875 L 96.660156 48.46875 L 96.703125 49.136719 L 96.71875 49.136719 C 96.921875 48.753906 97.390625 48.375 98.0625 48.375 C 98.621094 48.375 99.496094 48.710938 99.496094 50.101562 L 99.496094 52.519531 L 98.757812 52.519531 L 98.757812 50.183594 C 98.757812 49.53125 98.515625 48.984375 97.820312 48.984375 C 97.359375 48.992188 96.957031 49.300781 96.828125 49.742188 C 96.792969 49.851562 96.777344 49.96875 96.78125 50.082031 L 96.78125 52.519531 L 96.042969 52.519531 L 96.042969 49.566406 Z M 96.039062 49.566406 "/>
</g>
</svg>
