<?xml version="1.0" encoding="UTF-8"?>
<svg xmlns="http://www.w3.org/2000/svg" xmlns:xlink="http://www.w3.org/1999/xlink" width="100px" height="100px" viewBox="0 0 100 48" version="1.1">
<g id="surface1">
<path style=" stroke:none;fill-rule:nonzero;fill:rgb(98.823529%,15.294118%,47.45098%);fill-opacity:1;" d="M 30.839844 10.980469 C 31.816406 9.140625 28.652344 9.65625 28.652344 9.65625 C 27.519531 9.65625 27.011719 11 26.777344 11.386719 L 23.359375 18.007812 C 22.714844 19.105469 20.585938 23.789062 19.882812 24.824219 C 19.824219 23.769531 19.902344 21.65625 19.921875 21.160156 C 20.058594 19.160156 20.195312 17.644531 20.410156 15.820312 C 20.566406 14.398438 20.878906 12.804688 20.585938 11.386719 C 20.390625 10.503906 20.097656 10.445312 18.808594 10.308594 C 17.460938 10.175781 16.542969 12.097656 16.09375 13 C 14.453125 16.339844 12.617188 19.601562 11.152344 23.019531 C 10.722656 24.019531 10.195312 25.019531 9.746094 25.996094 C 9.21875 27.1875 8.730469 28.359375 8.164062 29.53125 C 7.558594 30.757812 5.664062 34.789062 5.136719 36.058594 C 4.550781 37.441406 4.433594 38.554688 6.777344 38.496094 C 7.148438 38.496094 7.96875 38.574219 8.984375 37.496094 C 9.785156 36.652344 9.941406 35.867188 10.410156 34.695312 C 12.089844 30.546875 13.28125 27.800781 15.117188 23.691406 C 15.292969 23.289062 15.703125 22.117188 16.113281 21.214844 C 16.09375 22.503906 15.878906 24.039062 15.78125 25.054688 C 15.46875 28.78125 15.253906 32.371094 14.921875 36.058594 C 14.882812 36.558594 14.746094 37.152344 14.980469 37.613281 C 15.214844 38.074219 15.800781 38.1875 16.269531 38.246094 C 18.144531 38.476562 18.339844 37.554688 18.925781 36.289062 C 19.453125 35.15625 19.765625 34.234375 20.234375 33.082031 C 21.679688 29.53125 23.203125 26.015625 24.882812 22.558594 C 25.3125 21.675781 25.742188 20.8125 26.210938 19.949219 C 27.070312 18.355469 27.773438 16.859375 28.710938 15.089844 C 29.414062 13.824219 30.097656 12.382812 30.839844 10.980469 Z M 95.195312 20.984375 C 94.980469 18.855469 92.011719 19.929688 90.234375 20.257812 C 89.570312 20.371094 87.519531 20.753906 85.15625 21.195312 C 85.058594 18.796875 85.097656 19.277344 85.078125 17.816406 C 85.019531 15.707031 84.902344 14.054688 84.785156 12.191406 C 84.707031 11.019531 84.53125 9.390625 82.382812 9.695312 C 79.882812 10.042969 79.472656 11.269531 78.808594 12.75 C 77.070312 16.609375 77.128906 16.628906 75.15625 20.929688 C 75 21.253906 74.277344 22.980469 74.160156 23.328125 C 74.082031 23.347656 73.925781 23.386719 73.730469 23.441406 C 72.929688 23.617188 71.953125 23.828125 70.878906 24.058594 L 70.898438 23.960938 C 71.152344 22.003906 71.464844 20.042969 71.738281 18.085938 C 71.992188 16.300781 72.265625 13.382812 72.480469 11.597656 C 72.714844 9.675781 70.449219 9.714844 70.449219 9.714844 C 69.0625 9.636719 68.535156 10.042969 67.65625 11.15625 C 66.152344 13.074219 64.335938 15.148438 62.734375 17.261719 C 59.824219 21.082031 57.695312 23.960938 55.058594 27.800781 C 54.296875 28.914062 53.125 30.605469 52.109375 31.929688 C 51.425781 30.605469 50.839844 29.144531 50.273438 27.800781 C 49.453125 25.882812 48.847656 24.691406 48.457031 23.425781 C 48.105469 22.308594 48.535156 22.15625 49.375 21.523438 C 51.796875 19.71875 54.53125 18.46875 57.011719 16.742188 C 58.769531 15.511719 60.878906 14.152344 62.597656 12.882812 C 62.597656 12.882812 63.59375 12.308594 64.140625 11.578125 C 64.824219 10.65625 62.890625 9.695312 62.890625 9.695312 C 61.796875 9.523438 61.191406 9.773438 60.429688 10.117188 C 59.648438 10.464844 58.632812 11.25 57.96875 11.769531 C 56.503906 12.882812 54.648438 14.207031 53.203125 15.320312 C 51.425781 16.683594 50.214844 17.53125 48.261719 18.664062 L 53.222656 11.367188 C 54.84375 9.3125 50.546875 8.734375 48.90625 10.90625 C 47.382812 12.84375 46.347656 14.554688 45.15625 16.320312 C 42.285156 20.523438 39.921875 24.941406 37.558594 29.566406 C 36.660156 31.335938 35.78125 33.175781 34.960938 35 C 34.570312 35.886719 33.417969 37.921875 35 38.132812 C 38.378906 38.554688 38.925781 36.980469 39.6875 35.078125 C 40.9375 31.949219 41.347656 31.371094 42.148438 29.433594 C 42.929688 27.550781 43.496094 26.476562 44.375 24.863281 C 44.394531 24.84375 44.648438 24.441406 44.648438 24.441406 C 44.804688 24.769531 45.839844 28.148438 45.976562 28.53125 C 46.679688 30.355469 47.910156 34.617188 48.613281 36.558594 C 49.121094 38.167969 49.257812 38.628906 51.464844 38.574219 C 52.558594 38.554688 53.027344 38.132812 53.75 36.789062 C 54.472656 35.441406 57.597656 29.722656 57.597656 29.722656 C 58.535156 29.566406 59.882812 29.335938 60.761719 29.183594 C 60.917969 29.164062 61.269531 29.089844 61.757812 28.992188 C 62.089844 28.953125 62.363281 28.894531 62.578125 28.839844 C 62.597656 28.839844 62.597656 28.839844 62.617188 28.820312 C 63.476562 28.644531 64.570312 28.433594 65.761719 28.203125 C 65.546875 29.261719 64.882812 31.585938 64.746094 32.179688 C 64.746094 32.179688 63.300781 37.707031 65.175781 37.996094 C 66.347656 38.167969 66.953125 37.976562 66.953125 37.976562 C 69.140625 37.726562 69.179688 34.828125 69.179688 34.828125 L 70.371094 27.320312 C 71.230469 27.148438 72.089844 26.976562 72.929688 26.824219 L 70.351562 35.386719 C 69.980469 36.59375 69.707031 38.152344 71.914062 38.152344 C 73.710938 38.246094 73.828125 37.132812 73.828125 37.132812 C 73.867188 36.960938 75.292969 32.449219 75.644531 30.835938 C 75.878906 29.796875 76.71875 27.128906 77.050781 26.054688 C 77.988281 25.882812 78.691406 25.746094 79.023438 25.691406 C 79.414062 25.632812 80.175781 25.496094 81.171875 25.34375 C 81.152344 26.34375 81.171875 27.726562 81.191406 27.917969 C 81.40625 30.949219 81.171875 34.097656 81.816406 37.074219 C 81.914062 37.554688 82.109375 38.167969 82.734375 38.167969 C 83.476562 38.167969 83.710938 38.09375 84.492188 38.035156 C 86.757812 37.84375 86.347656 35.597656 86.210938 34.175781 C 86.054688 32.601562 85.898438 31.277344 85.683594 29.703125 C 85.507812 28.414062 85.390625 26.726562 85.371094 24.691406 L 85.371094 24.652344 C 89.082031 24.039062 93.085938 23.367188 93.671875 23.269531 C 94.609375 23.019531 95.390625 23.097656 95.195312 20.984375 Z M 66.191406 25.019531 C 66.191406 25.035156 66.171875 25.035156 66.171875 25.054688 C 63.574219 25.613281 61.132812 26.152344 59.765625 26.457031 C 61.132812 24.210938 67.148438 16.03125 68.066406 15.070312 C 67.558594 17.605469 66.738281 22.308594 66.191406 25.019531 Z M 81.191406 21.792969 L 81.191406 21.925781 C 79.941406 22.15625 78.769531 22.386719 77.832031 22.558594 C 79.023438 19.527344 80.273438 15.800781 81.015625 13.921875 C 80.957031 15.320312 81.25 20.410156 81.191406 21.792969 Z M 44.765625 12.75 C 45.15625 12.039062 46.035156 10.636719 44.941406 10.097656 C 44.296875 9.792969 43.4375 9.601562 42.773438 9.925781 C 42.226562 10.214844 41.816406 10.769531 41.542969 11.289062 L 37.363281 17.761719 C 36.679688 18.679688 36.035156 19.832031 34.648438 19.988281 C 33.730469 20.082031 33.066406 19.699219 33.085938 18.894531 C 33.105469 18.066406 33.59375 16.972656 33.964844 16.261719 C 35.058594 14.226562 35.195312 13.535156 36.25 11.519531 C 37.265625 9.582031 33.945312 9.140625 33.125 10.539062 C 32.539062 11.539062 31.40625 13.421875 31.152344 14.054688 C 30.683594 15.207031 27.167969 20.699219 28.691406 22.867188 C 30.644531 25.324219 35.839844 21.445312 33.183594 25.921875 C 31.035156 29.511719 29.6875 31.566406 27.8125 34.886719 C 27.402344 35.597656 26.894531 36.308594 26.757812 37.152344 C 26.5625 38.34375 28.222656 38.324219 28.945312 38.285156 C 30.214844 38.1875 30.820312 37.613281 31.328125 36.480469 C 31.601562 35.886719 31.972656 35.15625 32.246094 34.558594 C 34.707031 29.28125 37.324219 24.691406 40.566406 19.585938 C 42.109375 17.164062 43.476562 15.089844 44.765625 12.75 Z M 44.765625 12.75 "/>
</g>
</svg>
